<svg width="1537" height="413" viewBox="0 0 1537 413" fill="none" xmlns="http://www.w3.org/2000/svg">
<path d="M658.5 144.106L870 168.106L751 198.106C688.583 189.223 655.78 190.608 599 198.106C496.529 209.141 448.541 236.861 365.5 292.106C316.635 300.385 289.485 305.947 237.5 302.606C222.195 302.454 200.675 302.447 132.5 302.606C88.3712 297.866 58.2072 298.584 0 302.606V11.606C29.3921 -2.02467 59.3838 -5.60924 191.5 11.606C295.532 33.2246 343.008 45.0206 428 73.106C525.926 109.266 575.118 123.45 658.5 144.106Z" fill="#CACBB7"/>
<path d="M1179 66.1913C1227.6 76.0914 1252.66 80.5022 1297 88.1913C1238.23 108.24 1204.54 121.725 1141 156.191C1087.25 181.845 1054.24 195.793 989 219.691C948.288 230.318 923.477 234.134 866.5 227.191C818.316 207.759 800.783 199.635 768 184.691C825.411 177.757 856.974 171.68 908.5 144.191L1057 81.1913C1101.46 69.664 1125.67 61.9161 1179 66.1913Z" fill="#AEB499"/>
<path d="M103 265.832C61.1675 260.415 38.6949 262.604 0 273.832V344.332C34.5124 329.422 57.0588 320.487 109.5 302.332L235.5 278.332C187.984 273.982 161.927 271.617 103 265.832Z" fill="#D3D2BF"/>
<path d="M170 288.5C245.583 273.227 286.17 267.09 353.5 263C300.457 300.564 270.359 321.898 212 363.5C181.487 381.637 160.243 392.763 104.5 407.5C65.9589 416.263 42.8812 414.135 0 402V340C65.9982 312.574 103.088 298.812 170 288.5Z" fill="#C3C6AD"/>
<path d="M1536.41 112.765V212.765C1485.49 188.152 1450.86 182.887 1386.41 177.266C1311.95 173.356 1270.24 180.604 1195.91 203.265C1115.97 229.147 1070.01 242.108 971.914 243.265C859.262 230.933 801.114 203.64 871.914 215.265C891.969 218.559 953.148 209.064 992.414 194.766C1128.87 142.42 1255.69 63.8523 1361.41 69.2655C1432.35 75.8616 1470.34 86.7026 1536.41 112.765Z" fill="#9AA27B"/>
<path d="M1535.5 252.026V306.526C1520.83 302.859 1470.64 286.363 1385.5 286.026C1305.04 285.707 1242.18 311.934 1218.48 321.825L1218 322.026C1147.1 357.073 1106.05 376.376 1020.5 407.526H0V404.026V392.026C16.7429 397.006 26.5704 399.457 49 400.026C85.0427 403.433 96.2103 401.032 123 400.026C172.656 396.14 199.713 391.947 244.5 375.526C333.869 340.504 382.056 320 460.5 280.026C543.283 248.394 589.214 241.246 671 231.526C754.939 235.5 794.863 247.267 864 271.026C928.883 294.348 966.652 297.593 1035 296.526C1108.31 282.871 1142.14 272.518 1197 252.026C1257 236.34 1290.6 233.018 1350.5 231.026C1422.64 230.573 1463.16 236.061 1535.5 252.026Z" fill="#828E6B"/>
<path d="M1388.5 174.398C1451.37 177.127 1482.77 186.786 1536 209.898V262.648C1500.66 253.248 1481 247.539 1443 245.898C1368.59 232.186 1326.88 236.12 1252.5 248.898C1174.11 269.49 1131.69 280.748 1055.5 299.398C1007.07 307.01 978.84 307.981 923.5 294.398C858.923 278.433 830.388 269.484 781.805 254.248L777.5 252.898C709.919 236.031 672.041 235.309 604.5 248.398C488.426 275.95 421.523 303.075 300.5 362.398C251.553 382.82 219.87 391.078 159.5 402.898C131.585 407.278 115.934 408.054 88 407.398C110.853 404.187 122.779 401.808 141.5 395.898C209.253 365.125 241.28 345.189 289 305.398C394.488 234.683 445.366 183.172 586 162.898C640.306 151.853 668.93 155.795 719.354 162.74L720.5 162.898C762.149 177.056 785.898 186.011 830 206.398C876.788 228.422 904.477 233.909 955.5 235.898C1013.2 239.89 1045.5 238.175 1103 224.898C1158.01 208.153 1186.3 200.751 1240 187.398C1297.82 174.48 1330.35 172.115 1388.5 174.398Z" fill="#75835D"/>
<path d="M1129.93 358.401C1091.11 380.021 1064.99 391.054 1007.5 408H1535.5V300.715C1516.93 295.252 1505.88 292.382 1484.49 287.777C1438.41 277.334 1421.7 277.882 1379.91 278.072C1334.82 280.717 1307.71 285.498 1255.94 300.715C1210.88 319.272 1183.01 332.162 1129.93 358.401Z" fill="#66774F"/>
</svg>
